<svg xmlns="http://www.w3.org/2000/svg" xmlns:xlink="http://www.w3.org/1999/xlink" version="1.1" x="0px" y="0px" width="90px" height="90px" viewBox="0 0 90 90" enable-background="new 0 0 90 90" xml:space="preserve">
<g id="Layer_5">
</g>
<g id="Layer_2">
</g>
<g id="Layer_3">
</g>
<g id="Layer_4">
	<g>
		<path d="M85,51.125c-3.416-3.918-19.583-10.75-19.583-10.75c-4.921-2.346-9.604-3.042-12.058-3.247    c-0.012-1.347,0.849-1.419,0.849-1.419c1.12,0.073,2.651-0.677,2.651-0.677c2.188-1.25,1.932-2.281,1.932-2.281    c-0.333,0.917-3,1.644-3,1.644c-0.792,0.186-1.833-0.186-1.833-0.186c-1.563-0.451-3.172-0.092-4.137,0.229    c0.271,0.259,0.617,0.635,0.929,1.107c0,0,0.043,0.105,0.084,0.341c0.1,0.57,0.184,1.923-0.391,4.552c0,0-0.078,0.665-0.75,0.656    c0,0-0.656,0.094-0.719-0.844c0,0-0.049-4.641-1.719-5.25c0,0-1.394-0.763,1.812-0.951c-1.109-0.903-2.237-1.472-3.023-1.8v-0.001    c0,0,2.549-4.498,5.83-6.842c0,0,6.188-4.812,4.459-10.719c0.201,0.892,0.311,4.844-5.021,9.813c0,0-4.51,3.638-5.649,7.597    C45.254,31.943,45,31.875,45,31.875v0c0,0-0.239,0.065-0.622,0.208c-1.147-3.953-5.646-7.582-5.646-7.582    c-5.332-4.969-5.223-8.921-5.021-9.813c-1.729,5.906,4.459,10.719,4.459,10.719c3.227,2.305,5.739,6.683,5.822,6.828    c-0.788,0.326-1.933,0.898-3.061,1.815C44.12,34.239,42.729,35,42.729,35c-1.67,0.609-1.719,5.25-1.719,5.25    c-0.062,0.938-0.719,0.844-0.719,0.844c-0.672,0.008-0.75-0.656-0.75-0.656c-0.565-2.586-0.492-3.94-0.395-4.526    c0.042-0.257,0.089-0.368,0.089-0.368c0.387-0.586,0.827-1.023,1.108-1.273c-0.965-0.254-2.285-0.435-3.576-0.063    c0,0-1.041,0.371-1.833,0.186c0,0-2.667-0.728-3-1.644c0,0-0.256,1.031,1.932,2.281c0,0,1.531,0.75,2.651,0.677    c0,0,0.839,0.07,0.848,1.369c-2.146,0.123-7.314,0.69-12.784,3.298c0,0-16.167,6.833-19.583,10.75c0,0-5,4.917,6.583,11.75    c0,0,5.833,2.583,10.25,1.583c0,0-1.417,5.917,9.167,7.667c0,0,4.75,0.501,8.333-1.583c0,0,1.25,3.5,5.667,3.583    c4.417-0.084,5.666-3.584,5.666-3.584C54.25,72.625,59,72.125,59,72.125c10.584-1.75,9.166-7.668,9.166-7.668    c4.417,1,10.25-1.582,10.25-1.582C89.999,56.041,85,51.125,85,51.125z M20.406,58.771c0,0-4.656,0.406-5.469-6.875    c0,0-0.609-4.766,2.094-4.844c0,0,4.781,0.453,6.375,4.5C23.406,51.553,25.984,58.775,20.406,58.771z M26.969,44.303    c1.594-3,5.062-2.356,5.062-2.356c1.094,0.075,1.406,0.481,1.406,0.481c0.438,0.609,0,1.625,0,1.625    c-2.031,5.484-4.5,4.562-4.5,4.562C25.469,47.443,26.969,44.303,26.969,44.303z M34.844,63.24    c-0.219,3.188-2.531,0.829-2.531,0.829c-0.844-1.032-1.094-0.485-1.094-0.485c-0.094,0.359-0.625,0.438-0.625,0.438    c-2,0.406-1.719-2.25-1.719-2.25c-0.014-1.266,2.469-4.906,2.469-4.906c0.875-1.641,1.875,0.25,1.875,0.25    C35.219,60.709,34.844,63.24,34.844,63.24z M59.371,64.021c0,0-0.531-0.078-0.625-0.438c0,0-0.25-0.547-1.094,0.485    c0,0-2.312,2.358-2.531-0.829c0,0-0.375-2.531,1.625-6.125c0,0,1-1.891,1.875-0.25c0,0,2.482,3.641,2.469,4.906    C61.09,61.771,61.371,64.428,59.371,64.021z M61.027,48.615c0,0-2.469,0.922-4.5-4.562c0,0-0.438-1.016,0-1.625    c0,0,0.312-0.406,1.406-0.481c0,0,3.469-0.644,5.062,2.356C62.996,44.303,64.496,47.443,61.027,48.615z M75.027,51.896    c-0.812,7.281-5.469,6.875-5.469,6.875c-5.578,0.004-3-7.219-3-7.219c1.594-4.047,6.375-4.5,6.375-4.5    C75.637,47.131,75.027,51.896,75.027,51.896z"/>
	</g>
</g>
</svg>